<svg width="16" height="16" viewBox="0 0 16 16" fill="none" xmlns="http://www.w3.org/2000/svg">
  <path d="M0.734576 5.16761C0.805268 4.07928 1.68027 3.22636 2.76955 3.1724C4.34691 3.09425 6.60141 3 8.3001 3C9.99879 3 12.2533 3.09425 13.8306 3.1724C14.9199 3.22636 15.7949 4.07928 15.8656 5.16761C15.9333 6.21031 16.0001 7.49331 16.0001 8.5C16.0001 9.50669 15.9333 10.7897 15.8656 11.8324C15.7949 12.9207 14.9199 13.7736 13.8306 13.8276C12.2533 13.9058 9.99879 14 8.3001 14C6.60141 14 4.34691 13.9058 2.76955 13.8276C1.68027 13.7736 0.805268 12.9207 0.734576 11.8324C0.666848 10.7897 0.600098 9.50669 0.600098 8.5C0.600098 7.49331 0.666848 6.21031 0.734576 5.16761Z" fill="currentColor"></path>
  <path d="M6.6499 6.30005V10.7L11.0499 8.50005L6.6499 6.30005Z" fill="currentColor" class="text-gray-50 dark:text-gray-900"></path>
</svg>
